<svg xmlns="http://www.w3.org/2000/svg" viewBox="0 0 1280 900" role="img" aria-labelledby="title desc">
  <title id="title">DlightRAG Unified LightRAG Main Architecture</title>
  <desc id="desc">Layered DlightRAG architecture with interface boundary, unified ingest and query orchestration, LightRAG ownership, and a single configured PostgreSQL storage endpoint.</desc>
  <defs>
    <marker id="arrow" markerWidth="10" markerHeight="10" refX="8" refY="5" orient="auto" markerUnits="strokeWidth">
      <path d="M 0 0 L 10 5 L 0 10 z" fill="#475569"/>
    </marker>
    <marker id="arrow-blue" markerWidth="10" markerHeight="10" refX="8" refY="5" orient="auto" markerUnits="strokeWidth">
      <path d="M 0 0 L 10 5 L 0 10 z" fill="#0369a1"/>
    </marker>
    <marker id="arrow-orange" markerWidth="10" markerHeight="10" refX="8" refY="5" orient="auto" markerUnits="strokeWidth">
      <path d="M 0 0 L 10 5 L 0 10 z" fill="#b45309"/>
    </marker>
    <marker id="arrow-green" markerWidth="10" markerHeight="10" refX="8" refY="5" orient="auto" markerUnits="strokeWidth">
      <path d="M 0 0 L 10 5 L 0 10 z" fill="#15803d"/>
    </marker>
    <marker id="arrow-pink" markerWidth="10" markerHeight="10" refX="8" refY="5" orient="auto" markerUnits="strokeWidth">
      <path d="M 0 0 L 10 5 L 0 10 z" fill="#be185d"/>
    </marker>
    <style>
      .bg { fill: #ffffff; }
      .title { font: 700 25px Inter, ui-sans-serif, system-ui, -apple-system, BlinkMacSystemFont, "Segoe UI", sans-serif; fill: #0f172a; }
      .subtitle { font: 400 12px Inter, ui-sans-serif, system-ui, -apple-system, BlinkMacSystemFont, "Segoe UI", sans-serif; fill: #475569; }
      .band-title { font: 700 12px Inter, ui-sans-serif, system-ui, -apple-system, BlinkMacSystemFont, "Segoe UI", sans-serif; fill: #334155; letter-spacing: .1px; }
      .lane-title { font: 700 12px Inter, ui-sans-serif, system-ui, -apple-system, BlinkMacSystemFont, "Segoe UI", sans-serif; fill: #334155; }
      .label { font: 700 12px Inter, ui-sans-serif, system-ui, -apple-system, BlinkMacSystemFont, "Segoe UI", sans-serif; fill: #111827; }
      .small { font: 400 10.5px Inter, ui-sans-serif, system-ui, -apple-system, BlinkMacSystemFont, "Segoe UI", sans-serif; fill: #64748b; }
      .note { font: 400 10px Inter, ui-sans-serif, system-ui, -apple-system, BlinkMacSystemFont, "Segoe UI", sans-serif; fill: #475569; }
      .band { fill: #ffffff; stroke: #d1d5db; stroke-width: 1.2; rx: 6; }
      .band-soft { fill: #f8fafc; stroke: #cbd5e1; stroke-width: 1.2; rx: 6; }
      .band-orange { fill: #fff7ed; stroke: #f59e0b; stroke-width: 1.2; rx: 6; }
      .band-green { fill: #f0fdf4; stroke: #86efac; stroke-width: 1.2; rx: 6; }
      .box { fill: #ffffff; stroke: #94a3b8; stroke-width: 1.2; rx: 8; }
      .box-blue { fill: #e0f2fe; stroke: #0284c7; }
      .box-indigo { fill: #eef2ff; stroke: #6366f1; }
      .box-orange { fill: #fffbeb; stroke: #d97706; }
      .box-pink { fill: #fdf2f8; stroke: #db2777; }
      .box-green { fill: #dcfce7; stroke: #16a34a; }
      .line { fill: none; stroke: #475569; stroke-width: 1.35; marker-end: url(#arrow); }
      .line-blue { fill: none; stroke: #0369a1; stroke-width: 1.35; marker-end: url(#arrow-blue); }
      .line-orange { fill: none; stroke: #b45309; stroke-width: 1.3; marker-end: url(#arrow-orange); }
      .line-green { fill: none; stroke: #15803d; stroke-width: 1.3; marker-end: url(#arrow-green); }
      .line-pink { fill: none; stroke: #be185d; stroke-width: 1.2; marker-end: url(#arrow-pink); }
      .dash { stroke-dasharray: 6 5; }
    </style>
  </defs>

  <rect class="bg" width="1280" height="900"/>

  <text class="title" x="64" y="52">DlightRAG Unified LightRAG Main Architecture</text>
  <text class="subtitle" x="64" y="80">One production path: DlightRAG stages sources and metadata; LightRAG runs parser, KG, vectors, chunks, and doc status.</text>
  <text class="subtitle" x="64" y="98">DlightRAG adds jobs, metadata governance, query-image visual search, BM25 fusion, visual assets, and cited answers.</text>

  <rect class="band-soft" x="64" y="126" width="1152" height="108"/>
  <text class="band-title" x="84" y="151">Interface Boundary</text>

  <rect class="box" x="96" y="166" width="210" height="52"/>
  <text class="label" text-anchor="middle" x="201" y="187">API, SDK, Web UI, MCP</text>
  <text class="small" text-anchor="middle" x="201" y="205">transport, auth, uploads, image routes</text>

  <rect class="box box-indigo" x="382" y="160" width="244" height="64"/>
  <text class="label" text-anchor="middle" x="504" y="184">RAGServiceManager</text>
  <text class="small" text-anchor="middle" x="504" y="202">workspace routing, session images</text>
  <text class="small" text-anchor="middle" x="504" y="216">service lifecycle, ingest jobs</text>

  <rect class="box box-indigo" x="704" y="160" width="244" height="64"/>
  <text class="label" text-anchor="middle" x="826" y="188">RAGService</text>
  <text class="small" text-anchor="middle" x="826" y="207">per-workspace runtime facade</text>

  <rect class="box box-pink" x="1016" y="160" width="168" height="64"/>
  <text class="label" text-anchor="middle" x="1100" y="184">Model Adapters</text>
  <text class="small" text-anchor="middle" x="1100" y="202">LLM, VLM, embedding</text>
  <text class="small" text-anchor="middle" x="1100" y="216">rerank roles</text>

  <path class="line" d="M 306 192 H 382"/>
  <path class="line" d="M 626 192 H 704"/>
  <path class="line-pink dash" d="M 1016 192 H 948"/>

  <rect class="band" x="64" y="270" width="1152" height="380"/>
  <text class="band-title" x="84" y="295">Runtime Orchestration</text>

  <rect class="band-soft" x="92" y="316" width="330" height="290"/>
  <text class="lane-title" x="112" y="341">Ingest/Admin Path</text>

  <rect class="box" x="118" y="360" width="130" height="58"/>
  <text class="label" text-anchor="middle" x="183" y="383">Source Intake</text>
  <text class="small" text-anchor="middle" x="183" y="402">local, URL, SDK, cloud</text>

  <rect class="box box-blue" x="270" y="360" width="124" height="58"/>
  <text class="label" text-anchor="middle" x="332" y="383">Metadata</text>
  <text class="small" text-anchor="middle" x="332" y="402">contracts + policy</text>

  <rect class="box box-blue" x="118" y="455" width="276" height="60"/>
  <text class="label" text-anchor="middle" x="256" y="478">Unified Ingestion Engine</text>
  <text class="small" text-anchor="middle" x="256" y="497">staging, metadata, LightRAG enqueue</text>

  <rect class="box box-pink" x="118" y="535" width="276" height="50"/>
  <text class="label" text-anchor="middle" x="256" y="556">Image Vector Alignment</text>
  <text class="small" text-anchor="middle" x="256" y="574">existing LightRAG drawing chunks</text>

  <path class="line-blue" d="M 248 389 H 270"/>
  <path class="line-blue" d="M 332 418 V 455"/>
  <path class="line-pink" d="M 256 515 V 535"/>

  <rect class="band-orange" x="475" y="316" width="330" height="290"/>
  <text class="lane-title" x="495" y="341" fill="#92400e">LightRAG Main Ownership</text>

  <rect class="box box-orange" x="505" y="360" width="270" height="58"/>
  <text class="label" text-anchor="middle" x="640" y="383">Parser Sidecars</text>
  <text class="small" text-anchor="middle" x="640" y="402">text, tables, equations, extracted images</text>

  <rect class="box box-orange" x="505" y="440" width="126" height="64"/>
  <text class="label" text-anchor="middle" x="568" y="463">KG + Vectors</text>
  <text class="small" text-anchor="middle" x="568" y="482">chunks, entities</text>
  <text class="small" text-anchor="middle" x="568" y="496">relationships</text>

  <rect class="box box-orange" x="649" y="440" width="126" height="64"/>
  <text class="label" text-anchor="middle" x="712" y="463">Doc Status</text>
  <text class="small" text-anchor="middle" x="712" y="482">content hash</text>
  <text class="small" text-anchor="middle" x="712" y="496">chunks list</text>

  <rect class="box box-orange" x="505" y="525" width="270" height="58"/>
  <text class="label" text-anchor="middle" x="640" y="548">LightRAG Mix Retrieval</text>
  <text class="small" text-anchor="middle" x="640" y="567">retrieval base: aquery_data(mode=mix)</text>

  <path class="line" d="M 394 485 H 505"/>
  <path class="line-orange" d="M 640 418 V 440"/>
  <path class="line-orange" d="M 631 472 H 649"/>

  <rect class="band-soft" x="858" y="316" width="330" height="290"/>
  <text class="lane-title" x="878" y="341">Query/Answer Path</text>

  <rect class="box box-blue" x="884" y="360" width="126" height="58"/>
  <text class="label" text-anchor="middle" x="947" y="383">QueryPlanner</text>
  <text class="small" text-anchor="middle" x="947" y="402">rewrite, BM25 query, filters</text>

  <rect class="box box-blue" x="1034" y="360" width="126" height="58"/>
  <text class="label" text-anchor="middle" x="1097" y="383">Filter Scope</text>
  <text class="small" text-anchor="middle" x="1097" y="402">metadata in-filter</text>

  <rect class="box box-blue" x="884" y="455" width="276" height="60"/>
  <text class="label" text-anchor="middle" x="1022" y="478">UnifiedRetriever</text>
  <text class="small" text-anchor="middle" x="1022" y="497">LightRAG mix + BM25 + query images</text>

  <rect class="box" x="884" y="535" width="126" height="58"/>
  <text class="label" text-anchor="middle" x="947" y="558">Fusion/Rerank</text>
  <text class="small" text-anchor="middle" x="947" y="577">RRF then rerank</text>

  <rect class="box" x="1034" y="535" width="126" height="58"/>
  <text class="label" text-anchor="middle" x="1097" y="558">Answer/Sources</text>
  <text class="small" text-anchor="middle" x="1097" y="577">stream + validated citations</text>

  <path class="line-blue" d="M 1010 389 H 1034"/>
  <path class="line-blue" d="M 1097 418 V 455"/>
  <path class="line-orange" d="M 775 554 H 884"/>
  <text class="note" text-anchor="middle" x="830" y="546" fill="#92400e">chunks + references</text>
  <path class="line" d="M 1022 515 V 525 H 947 V 535"/>
  <path class="line" d="M 1010 564 H 1034"/>

  <path class="line" d="M 826 224 V 252 H 257 V 316"/>
  <path class="line" d="M 826 252 H 1023 V 316"/>

  <rect class="band-green" x="64" y="690" width="1152" height="150"/>
  <text class="band-title" x="84" y="715" fill="#166534">PostgreSQL 18 Storage Ecosystem</text>

  <rect class="box box-green" x="120" y="748" width="250" height="58"/>
  <text class="label" text-anchor="middle" x="245" y="771">PostgreSQL Endpoint</text>
  <text class="small" text-anchor="middle" x="245" y="790">write-capable app storage</text>

  <rect class="box" x="470" y="734" width="340" height="86" stroke="#22c55e"/>
  <text class="label" text-anchor="middle" x="640" y="759">Storage Surfaces</text>
  <text class="small" text-anchor="middle" x="640" y="778">LightRAG chunks/doc status/KG/vectors/sidecars</text>
  <text class="small" text-anchor="middle" x="640" y="795">DlightRAG metadata index + pg_textsearch BM25</text>

  <rect class="box box-green" x="920" y="748" width="240" height="58"/>
  <text class="label" text-anchor="middle" x="1040" y="771">External DB Routing</text>
  <text class="small" text-anchor="middle" x="1040" y="790">managed by infrastructure</text>

  <path class="line-green" d="M 256 606 V 748"/>
  <path class="line-green" d="M 640 606 C 560 662 410 706 280 748"/>
  <path class="line-green dash" d="M 370 744 C 520 706 760 706 920 744"/>
  <rect x="558" y="706" width="164" height="16" fill="#f0fdf4"/>
  <text class="note" text-anchor="middle" x="640" y="718" fill="#166534">optional outside DlightRAG</text>
</svg>
